<svg xmlns="http://www.w3.org/2000/svg" width="64" height="64" viewBox="0 0 64 64">
  <path id="Icon_simple-adobeillustrator" data-name="Icon simple-adobeillustrator" d="M0,.45v64H64V.45ZM2.667,3.185H61.333v58.53H2.667ZM22.2,36.689l-2.112,8.2c-.045.227-.133.279-.395.279H15.779c-.267,0-.307-.09-.267-.4l7.573-27.2a8.641,8.641,0,0,0,.261-2.278c0-.181.088-.274.221-.274h5.589c.176,0,.267.049.309.274L37.96,44.807c.045.227,0,.361-.221.361h-4.4c-.221,0-.352-.055-.395-.235l-2.2-8.246H22.192Zm7.435-4.444c-.747-3.025-2.507-9.649-3.168-12.855h-.045c-.571,3.2-1.979,8.615-3.08,12.855Zm12-15.2a2.729,2.729,0,1,1,5.456,0,2.586,2.586,0,0,1-2.773,2.8,2.54,2.54,0,0,1-2.693-2.8Zm.3,6.219c0-.219.088-.3.309-.3h4.187c.235,0,.32.09.32.317V44.873c0,.227-.043.317-.307.317H42.309c-.267,0-.355-.137-.355-.356V23.26Z" transform="translate(0 -0.45)" fill="#ffab00"/>
</svg>
