<svg xmlns="http://www.w3.org/2000/svg" width="64" height="64" viewBox="0 0 64 64">
  <path id="Icon_awesome-figma" data-name="Icon awesome-figma" d="M49.472,21.338c8.835,0,16-4.777,16-10.669S58.307,0,49.472,0h-32C8.646,0,1.488,4.774,1.488,10.663S8.646,21.325,17.477,21.325c-8.835,0-16,4.777-16,10.669s7.162,10.669,16,10.669c-8.835,0-16,4.77-16.007,10.662S8.623,64,17.458,64s16-4.77,16.007-10.662v-32Zm0,0c-8.83,0-15.988,4.774-15.988,10.662s7.158,10.662,15.988,10.662S65.46,37.889,65.46,32,58.3,21.339,49.474,21.338Z" transform="translate(-1.47)" fill="#ff9692"/>
</svg>
