<svg xmlns="http://www.w3.org/2000/svg" width="64" height="64" viewBox="0 0 64 64">
  <path id="Icon_awesome-git-square" data-name="Icon awesome-git-square" d="M14.37,45.427c6.939.473,8.421.3,8.421,1.706,0,2.857-9.364,2.866-9.364.217A3.222,3.222,0,0,1,14.37,45.427Zm3.993-16.663c-4.613,0-4.821,6.353-.107,6.353A3.184,3.184,0,1,0,18.363,28.764ZM64,9.107V59.393a6.857,6.857,0,0,1-6.857,6.857H6.857A6.857,6.857,0,0,1,0,59.393V9.107A6.857,6.857,0,0,1,6.857,2.25H57.143A6.857,6.857,0,0,1,64,9.107Zm-32.429,9.9a2.98,2.98,0,0,0,3.266,3.269,2.992,2.992,0,0,0,3.3-3.269c0-2.07-1.2-3.187-3.3-3.187a2.924,2.924,0,0,0-3.269,3.187Zm-3.117,6.527H21.376C17.8,24.6,9.724,24.843,9.724,32.214a5.8,5.8,0,0,0,3.121,5.444c-2.241,2.053-3.3,3.02-3.3,4.391a2.417,2.417,0,0,0,1.6,2.394c-1.271,1.2-2,2.069-2,3.7,0,2.867,2.507,4.531,9.077,4.531,6.317,0,9.981-2.359,9.981-6.533,0-5.239-4.033-5.046-13.539-5.626l1.2-1.919c2.429.677,10.6.89,10.6-6.061a5.757,5.757,0,0,0-1.343-3.667l3.34-.254ZM40.5,41.227l-1.857-.254c-.546-.073-.581-.143-.581-.727V25.181H30.55l-.4,2.939c2.25.793,2.429.694,2.429,1.453V40.25c0,.8-.044.654-2.429.981V44.1H40.5Zm14.354,1.451-.981-3.2c-5.847,2.2-5.407-1.773-5.407-2.39V28.419h5.407v-3.63H48.759c-.41,0-.286.36-.286-5.519H45.019c-.4,3.957-1.669,5.554-4.857,5.917v3.231c2.924,0,2.831-.121,2.831.363v9.51c0,4.1,1.633,5.844,5.953,5.844a14.424,14.424,0,0,0,5.911-1.457Z" transform="translate(0 -2.25)" fill="#f95a2c"/>
</svg>
