<svg xmlns="http://www.w3.org/2000/svg" width="64" height="64" viewBox="0 0 64 64">
  <path id="Icon_awesome-js-square" data-name="Icon awesome-js-square" d="M57.143,2.25H6.857A6.859,6.859,0,0,0,0,9.107V59.393A6.859,6.859,0,0,0,6.857,66.25H57.143A6.859,6.859,0,0,0,64,59.393V9.107A6.859,6.859,0,0,0,57.143,2.25ZM34.829,52.164c0,6.229-3.657,9.071-8.986,9.071a9.343,9.343,0,0,1-9.029-5.5l4.9-2.957c.943,1.671,1.8,3.086,3.871,3.086,1.971,0,3.229-.771,3.229-3.786V31.636h6.014Zm14.229,9.071c-5.586,0-9.2-2.657-10.957-6.143L43,52.264c1.286,2.1,2.971,3.657,5.929,3.657,2.486,0,4.086-1.243,4.086-2.971,0-2.057-1.629-2.786-4.386-4l-1.5-.643c-4.343-1.843-7.214-4.171-7.214-9.071,0-4.514,3.443-7.943,8.8-7.943,3.829,0,6.571,1.329,8.543,4.814l-4.686,3c-1.029-1.843-2.143-2.571-3.871-2.571a2.611,2.611,0,0,0-2.871,2.571c0,1.8,1.114,2.529,3.7,3.657l1.5.643c5.114,2.186,7.986,4.429,7.986,9.457,0,5.4-4.257,8.371-9.957,8.371Z" transform="translate(0 -2.25)" fill="#ffbd12"/>
</svg>
