<svg xmlns="http://www.w3.org/2000/svg" width="64" height="64" viewBox="0 0 64 64">
  <path id="Icon_simple-mongodb" data-name="Icon simple-mongodb" d="M72.744,25.381C65.233,10.555,47.515,5.683,45.612,3.819A25.9,25.9,0,0,1,41.252,0a1.149,1.149,0,0,0-.03.131V.165h-.006a.73.73,0,0,0-.024.1v.04h-.012c0,.027-.012.048-.012.069V.448h-.018a.247.247,0,0,1-.018.067V.571h-.012a.092.092,0,0,1-.012.056V.68H41.1a.42.42,0,0,1-.012.085V.771c-.018.045-.036.091-.054.133V.925H41.02C41.014.936,41,.947,41,.957V1h-.018v.059h-.03v.048h-.03v.056H40.9v.051h-.024v.045h-.036V1.3h-.024v.048h-.024v.037h-.03v.035h-.018v.04h-.024a.01.01,0,0,0-.006.011V1.5H40.7a.018.018,0,0,0-.006.016v.016h-.012a.065.065,0,0,0-.012.027c-.018.019-.042.037-.059.056v.005a.129.129,0,0,0-.03.019v.021h-.024v.021h-.03V1.7h-.018v.027h-.036v.037h-.024v.011h-.024v.021H40.4v.029h-.024v.021h-.036v.029h-.024V1.9h-.03v.021h-.018v.027h-.03v.021h-.024v.016h-.024V2h-.036v.024h-.024v.016H40.1v.021h-.024v.029h-.03V2.1h-.018v.021H40v.011h-.024v.027H39.95v.011h-.024v.021H39.9v.016h-.018l-.012.011v.011h-.012c-.006.005-.012.005-.012.011v0h-.006a.054.054,0,0,1-.024.019v.008h-.006a.742.742,0,0,0-.071.048v0a.25.25,0,0,0-.054.027v.005h-.006c-.006,0-.018.005-.018.008v.008h-.012l-.018.008v0h-.006s-.012.005-.018.011V2.4h-.018l-.012.005v.005h-.012c0,.005-.012.005-.012.008v.008h-.024s-.006.005-.012.008v.016H39.5v.011h-.024V2.48H39.45V2.5h-.03V2.48h-.03v.011h-.024v.016h-.03v.021h-.03v.011h-.024v.016H39.26v.011h-.024v.021H39.2V2.6h-.024v.016h-.03v.011h-.024v.013h-.03v.027h-.012v.011h-.036v.013h-.024v.005H39V2.7h-.03v.027h-.024v.011h-.03v.011h-.024v.016h-.03v.011h-.03v.011h-.024V2.8h-.024v.027H38.76V2.84h-.036v.011H38.7v.011h-.03v.016h-.024v.011h-.03v.019h-.024v.011h-.036v.016h-.012v.011h-.024v.011h-.03v.011h-.024v.016h-.03v.011h-.018c-.006,0-.006.005-.006.005V3H38.4l-.024.011a.145.145,0,0,1-.024.008v.016h-.024v.013h-.024v.011h-.024v.011h-.018l-.018.008v.008h-.012l-.012.005V3.1h-.012a.535.535,0,0,1-.083.043l-.071.027c-.071.021-.161.056-.232.085-.048.013-.1.032-.131.045v0H37.69l-.291.1v0c-.143.053-.28.1-.44.165v0h-.012c-.339.125-.7.267-1.106.424V4h-.006c-1.005.395-2.2.9-3.539,1.515l-.089.04-.024.011C24.094,9.317,11.348,17.136,10,29.771a12.434,12.434,0,0,0,.036,3.051v.024c.648,4.979,4.134,9.229,8.493,12.683v0a49.03,49.03,0,0,0,5.507,3.747v0a80.509,80.509,0,0,0,14.952,6.736c2.623,2.728,2.379,7.411,2.379,7.411L45.2,64s-.779-4.536.315-6.725a4.736,4.736,0,0,1,2.076-1.765c.63-.2,2.5-.8,4.74-1.72.107-.051.167-.1.262-.144,9.046-3.781,25.943-13.093,20.15-28.264Z" transform="translate(-9.927)" fill="#00c6ae"/>
</svg>
