<svg xmlns="http://www.w3.org/2000/svg" width="64" height="64" viewBox="0 0 64 64">
  <path id="Icon_simple-mysql" data-name="Icon simple-mysql" d="M43.747,12.519a2.06,2.06,0,0,0-.731.13V12.7h.037a9.242,9.242,0,0,0,.571,1.072c.144.42.267.84.411,1.257l.037-.059a1.817,1.817,0,0,0,.373-1.308c-.107-.185-.123-.369-.213-.55-.107-.263-.336-.393-.48-.6ZM15.387,64.333H12.915q-.12-9.2-.72-17.319h-.021L8.413,64.333H6.533L2.8,47.014H2.773q-.412,7.793-.52,17.319H0Q.22,52.752,1.093,42.616H4.16l3.56,15.96h.021l3.592-15.96h2.92q.968,11.87,1.141,21.717ZM26.1,48.31Q24.587,60.357,22.12,65.825q-1.928,4.218-4.221,4.214a3.116,3.116,0,0,1-1.509-.542v-1.94a4.693,4.693,0,0,0,1.029.1,2.065,2.065,0,0,0,1.725-.872,3.887,3.887,0,0,0,.787-2.376,22.2,22.2,0,0,0-.613-3.707l-2.7-12.394H19.04l1.939,9.268a17.84,17.84,0,0,1,.547,4.41A84.194,84.194,0,0,0,23.752,48.31H26.1ZM58.965,64.333H51.952V42.616h2.36V61.663h4.653Zm-8.853.53L47.4,62.9a7.666,7.666,0,0,0,.68-.982q1.732-2.981,1.728-8.848,0-10.78-5.747-10.784a4.877,4.877,0,0,0-4.4,2.737q-1.72,2.992-1.723,8.816,0,5.726,1.531,8.4a4.569,4.569,0,0,0,4.221,2.415,4.779,4.779,0,0,0,1.933-.385l3.533,3.032.96-2.443Zm-8.779-4.877a18.817,18.817,0,0,1-.9-6.817q0-8.206,3.387-8.208a2.751,2.751,0,0,1,2.605,1.964,18.729,18.729,0,0,1,.9,6.766q0,8.271-3.387,8.278a2.752,2.752,0,0,1-2.608-1.964Zm-4.421-1.669a7.178,7.178,0,0,1-1.376,4.54,4.429,4.429,0,0,1-3.691,1.767A5.97,5.97,0,0,1,27.651,62.6l.632-1.869a5.5,5.5,0,0,0,3.173,1.288,2.633,2.633,0,0,0,2.088-.864,3.594,3.594,0,0,0,.8-2.415,4.232,4.232,0,0,0-1.728-3.318c-1.035-.836-3.1-2.58-3.1-2.58a6.109,6.109,0,0,1-1.685-4.622,6.765,6.765,0,0,1,1.253-4.261,3.911,3.911,0,0,1,3.253-1.63,5.274,5.274,0,0,1,3.733,1.61L35.5,45.809a5.369,5.369,0,0,0-2.837-.9,2.047,2.047,0,0,0-1.744.809,3.31,3.31,0,0,0-.661,2.058,4.254,4.254,0,0,0,1.776,3.338c1.048.844,3.165,2.631,3.165,2.631a5.946,5.946,0,0,1,1.728,4.587ZM61.931,35.335a5.841,5.841,0,0,0-3.459.738c-.267.157-.693.157-.731.656a5.57,5.57,0,0,1,.293.84,6.025,6.025,0,0,0,.923,1.6A16.384,16.384,0,0,0,60.1,40.385c.693.628,1.48,1,2.16,1.634.387.369.781.836,1.173,1.229.195.2.32.55.571.675v-.079c-.123-.236-.16-.577-.28-.84-.179-.263-.357-.5-.533-.758A11.434,11.434,0,0,0,61.333,39.6c-.571-.573-1.819-1.374-2.053-2.337l-.035-.055a5.319,5.319,0,0,0,1.227-.416c.605-.236,1.16-.185,1.787-.416.283-.106.568-.236.853-.369v-.236c-.32-.471-.56-1.111-.891-1.551a27.1,27.1,0,0,0-2.944-3.232,21.288,21.288,0,0,0-1.859-1.312c-.213-.157-.571-.236-.693-.5a12.289,12.289,0,0,1-.733-2.019c-.512-1.445-1.013-3.044-1.459-4.567-.32-1.029-.515-2.054-.907-3a23.772,23.772,0,0,0-6.9-9.818A6.916,6.916,0,0,0,44.448,8.7c-.445-.031-.891-.079-1.333-.106-.293-.185-.576-.683-.827-.923-1.013-.943-3.637-2.985-4.384-.283-.48,1.7.712,3.385,1.125,4.249a13.46,13.46,0,0,1,.907,1.964c.125.456.16.923.285,1.4.283,1.155.552,2.443.925,3.523a14.087,14.087,0,0,0,.659,1.622c.144.287.389.42.445.891A10.448,10.448,0,0,0,41.84,23a16.668,16.668,0,0,0,.517,8.836c.285.652.965,2.1,1.875,1.543.8-.471.624-1.964.853-3.279a2.54,2.54,0,0,1,.128-.734v.059c.251.738.5,1.441.731,2.18a13.8,13.8,0,0,0,2.312,3.515c.427.471.765,1.288,1.3,1.579v-.079h-.04a2.965,2.965,0,0,0-.411-.522,13.36,13.36,0,0,1-.933-1.571,39.855,39.855,0,0,1-1.992-4.783c-.293-.825-.539-1.712-.773-2.525-.107-.314-.107-.785-.285-.943a10.59,10.59,0,0,0-.853,1.779,21.434,21.434,0,0,0-.5,3.966c-.072.027-.037,0-.072.055-.571-.2-.765-1.076-.979-1.806a16.549,16.549,0,0,1-.16-7.01c.125-.55.659-2.286.445-2.812-.112-.5-.464-.785-.659-1.19a11.627,11.627,0,0,1-.64-1.677c-.427-1.469-.64-3.095-1.1-4.563A15.4,15.4,0,0,0,39.707,11a14.435,14.435,0,0,1-.981-2.042,1.724,1.724,0,0,1-.072-1.076.394.394,0,0,1,.251-.353c.235-.283.893.086,1.125.243a8.534,8.534,0,0,1,1.765,1.312c.251.259.52.758.84.888h.373c.571.185,1.213.055,1.747.287a10.433,10.433,0,0,1,2.565,1.806,22.465,22.465,0,0,1,5.56,8.977c.213.6.307,1.159.5,1.787.373,1.3.835,2.6,1.213,3.856a20.8,20.8,0,0,0,1.269,3.523c.267.55,1.339.836,1.819,1.123a11.1,11.1,0,0,1,1.227.738c.613.55,1.211,1.178,1.787,1.783.293.3,1.181.954,1.235,1.484Z" transform="translate(0 -6.039)" fill="#00c6ae"/>
</svg>
