<svg xmlns="http://www.w3.org/2000/svg" width="64" height="64" viewBox="0 0 64 64">
  <path id="Icon_simple-php" data-name="Icon simple-php" d="M18.693,31.44H16.176L14.8,44.864h2.235a3.742,3.742,0,0,0,3.312-1.592,12,12,0,0,0,1.467-5.318q.368-3.574-.331-5.044a2.782,2.782,0,0,0-2.792-1.47ZM32,8.532a32,32,0,1,0,32,32A32,32,0,0,0,32,8.532ZM23.307,46.3A7.483,7.483,0,0,1,20.861,49.1a6.486,6.486,0,0,1-3.427.831H14.285l-.872,8.522H9.739l3.28-32.068h7.067a4.854,4.854,0,0,1,4.651,3.184q1.464,3.178.88,8.881A23.887,23.887,0,0,1,24.8,42.74a16.715,16.715,0,0,1-1.5,3.564Zm10.731,3.625,1.448-14.189a6.888,6.888,0,0,0-.181-3.3,1.828,1.828,0,0,0-1.832-.882H30.56L28.683,49.933H25.035l3.28-32.074H31.96l-.872,8.527h3.248q3.068,0,4.229,2.033t.7,6.585L37.741,49.928h-3.7ZM54.3,38.446a23.427,23.427,0,0,1-.813,4.294,16.715,16.715,0,0,1-1.5,3.564A7.525,7.525,0,0,1,49.541,49.1a6.489,6.489,0,0,1-3.429.831H42.965l-.872,8.527H38.419L41.7,26.386h7.064a4.854,4.854,0,0,1,4.651,3.184q1.464,3.171.883,8.876Zm-6.92-7.006H44.861L43.485,44.864H45.72a3.736,3.736,0,0,0,3.312-1.592A12.033,12.033,0,0,0,50.5,37.954c.245-2.383.131-4.066-.333-5.044a2.782,2.782,0,0,0-2.792-1.47Z" transform="translate(0 -8.532)" fill="#8094ff"/>
</svg>
