<svg xmlns="http://www.w3.org/2000/svg" width="64" height="64" viewBox="0 0 64 64">
  <path id="Icon_simple-postman" data-name="Icon simple-postman" d="M36.073.264A32,32,0,1,0,63.736,36.072,32,32,0,0,0,36.073.264Zm6.59,19.96a2.28,2.28,0,0,0-1.581.667L29.207,32.766l-.819-.819-1.715-1.715c11.7-11.67,13.814-11.782,15.99-10.008ZM29.695,33.187l11.841-11.84a1.653,1.653,0,1,1,2.259,2.408l-12.531,11Zm.88,1.851-2.933.635a.167.167,0,0,1-.152-.28l1.72-1.72,1.365,1.365ZM23.1,33.814l3.125-3.125,2.344,2.341-5.278,1.136a.2.2,0,0,1-.227-.1.192.192,0,0,1,.035-.248ZM13.376,49.969a.2.2,0,0,1-.184-.221.205.205,0,0,1,.059-.123h.005L15.779,47.1l3.259,3.259Zm6.467-3.349a.608.608,0,0,0-.312.683l.541,2.307a.333.333,0,0,1-.563.312H19.5L17.011,47.43l-.784-.787L26.26,36.622l4.854-1.048L33.444,37.9a64.839,64.839,0,0,1-13.6,8.715Zm14.078-9.141h-.005L31.679,35.24l12.531-11a2.539,2.539,0,0,0,.317-.339C44.133,27.488,39.116,32.555,33.921,37.478Zm9.752-17.227-.008-.005a4.859,4.859,0,0,1,6.558-7.157l-4.294,4.3a.317.317,0,0,0,0,.451l3.325,3.325a4.846,4.846,0,0,1-5.582-.915Zm6.875,0a4.571,4.571,0,0,1-.723.581h0L46.6,17.613l4.088-4.088a4.859,4.859,0,0,1-.144,6.725Zm-.267-4.117a.381.381,0,0,0-.141.419,1.109,1.109,0,0,1-.141,1.2.369.369,0,1,0,.568.472,1.843,1.843,0,0,0,.232-2,.368.368,0,0,0-.517-.088Z" transform="translate(0 0)" fill="#ffab00"/>
</svg>
