<svg xmlns="http://www.w3.org/2000/svg" width="64" height="64" viewBox="0 0 64 64">
  <path id="Icon_simple-adobephotoshop" data-name="Icon simple-adobephotoshop" d="M0,.45v64H64V.45ZM2.667,3.185H61.333v58.53H2.667Zm12.8,12.253c0-.183.373-.317.6-.317,1.717-.09,4.235-.137,6.875-.137,7.392,0,10.267,4.157,10.267,9.48,0,6.947-4.912,9.928-10.939,9.928-1.013,0-1.36-.046-2.067-.046V44.853c0,.227-.088.317-.307.317H15.776c-.221,0-.307-.082-.307-.309V15.438ZM20.2,29.967c.613.044,1.1.044,2.16.044,3.12,0,6.053-1.127,6.053-5.459,0-3.474-2.1-5.235-5.659-5.235-1.056,0-2.067.044-2.552.09V29.975Zm22.952-3.249c-2.112,0-2.816,1.083-2.816,1.986,0,.993.48,1.668,3.3,3.159,4.181,2.079,5.5,4.062,5.5,6.994,0,4.376-3.253,6.728-7.653,6.728a11.409,11.409,0,0,1-5.467-1.176c-.173-.09-.213-.224-.213-.451V39.944c0-.274.128-.364.3-.23a9.645,9.645,0,0,0,5.365,1.625c2.112,0,2.992-.9,2.992-2.122,0-.993-.613-1.852-3.3-3.3-3.787-1.86-5.371-3.747-5.371-6.911,0-3.52,2.683-6.455,7.347-6.455a12.151,12.151,0,0,1,4.784.766.6.6,0,0,1,.267.542v3.747c0,.227-.133.364-.4.274a9.361,9.361,0,0,0-4.648-1.176Z" transform="translate(0 -0.45)" fill="#ffab00"/>
</svg>
