<svg xmlns="http://www.w3.org/2000/svg" width="64" height="64" viewBox="0 0 64 64">
  <path id="Icon_awesome-sass" data-name="Icon awesome-sass" d="M30.184,49.51C30.154,49.59,30.124,49.654,30.184,49.51ZM55.1,37.911a10.518,10.518,0,0,0-5.8,1.8A19.7,19.7,0,0,1,48,35.7a14.223,14.223,0,0,1-.11-3.373,35.994,35.994,0,0,1,.76-3.626c-.01-.147-.14-.88-1.43-.893s-2.4.333-2.529.787a20.8,20.8,0,0,0-.53,2.546c-.23,1.56-2.579,7.133-3.909,10.039a12.554,12.554,0,0,1-.89-2.933,14.223,14.223,0,0,1-.11-3.373,36,36,0,0,1,.76-3.626c-.01-.147-.14-.88-1.429-.893s-2.4.333-2.53.787-.27,1.52-.53,2.546S32.131,43.991,31.312,46.4c-.42,1.227-.78,2.213-1.04,2.88-.04.107-.07.173-.09.227.03-.067.05-.133.05-.107-.22.573-.35.893-.35.893v.013c-.17.427-.36.813-.45.813a7.322,7.322,0,0,1,.03-2.653c.47-3.226,1.58-8.239,1.57-8.413a1.293,1.293,0,0,0-.73-1.427.994.994,0,0,0-1.32.293c-.08,0-.14.267-.14.267s1.01-5.653-1.939-5.653c-1.84,0-4.4,2.693-5.658,5.133-.79.573-2.5,1.813-4.3,3.133-.69.507-1.4,1.027-2.07,1.52-.05-.067-.09-.133-.14-.2-3.579-5.093-10.187-8.693-9.907-15.532.1-2.493.75-9.039,12.707-16.985,9.8-6.506,17.635-4.72,18.984-.747,1.94,5.666-4.189,16.212-14.366,17.732-3.879.573-5.918-1.427-6.428-2.173-.53-.787-.61-.827-.81-.68-.33.24-.12.933,0,1.347a6.823,6.823,0,0,0,3.679,3.853c1.87.813,6.418,1.267,11.917-1.573C36.689,25.192,41.5,16.353,40.088,8.953,38.652,1.434,29.3-1.032,20.457,3.154A43.52,43.52,0,0,0,5.391,14.673C.522,20.752-.257,26.045.063,28.259,1.2,36.111,9.32,41.231,12.569,45.017c-.16.12-.31.227-.45.333C10.49,46.43,4.3,50.75,2.752,55.31,1,60.483,3.042,64.189,4.381,64.7c4.179,1.547,8.458-1.24,10.757-5.813a18.7,18.7,0,0,0,.96-13.266c-.01-.04-.03-.067-.04-.107.42-.333.85-.667,1.28-1,.829-.653,1.639-1.253,2.349-1.773a26.836,26.836,0,0,0-.84,5.68c-.18,2.933.73,6.733,1.91,8.226a1.771,1.771,0,0,0,1.539.667c1.38,0,2-1.52,2.689-3.333.85-2.213,1.6-4.786,1.6-4.786s-.94,6.959,1.63,6.959c.939,0,1.879-1.613,2.3-2.44v.013s.02-.053.07-.16c.1-.2.15-.32.15-.32V53.2c.38-.867,1.21-2.853,2.459-6.133,1.62-4.24,3.169-9.533,3.169-9.533a34.481,34.481,0,0,0,.62,3.44,38.333,38.333,0,0,0,1.34,4c-.38.693-.61,1.093-.61,1.093a.047.047,0,0,0,.01.027c-.3.533-.64,1.107-.99,1.667a47.6,47.6,0,0,0-3,5.013,1.662,1.662,0,0,0,.28,1.827,1.92,1.92,0,0,0,1.569.333,5.57,5.57,0,0,0,2.35-.72A7.791,7.791,0,0,0,39.951,52.8a6.856,6.856,0,0,0,1.94-5.306,14.075,14.075,0,0,0-.73-3.76c.11-.213.23-.44.34-.667a79.751,79.751,0,0,0,3.509-8.082,34.48,34.48,0,0,0,.62,3.44,28.035,28.035,0,0,0,1.139,3.426,15.03,15.03,0,0,0-3.409,5.88c-.74,2.84-.16,4.12.93,4.413A2.661,2.661,0,0,0,46,51.681a7.481,7.481,0,0,0,2.159-1.48,7,7,0,0,0,2.379-5.28A12.754,12.754,0,0,0,50,41.8a9.434,9.434,0,0,1,6.209-.96c5.568.867,6.658,5.506,6.448,7.439a5.014,5.014,0,0,1-1.77,3.333c-.39.32-.51.44-.48.68.05.347.23.333.56.253.46-.107,2.919-1.573,3.029-5.16.16-4.533-3.109-9.519-8.9-9.479ZM12.179,57.2c-1.839,2.68-4.419,3.693-5.528,2.84-1.19-.923-.72-4.866,1.549-7.722A32.062,32.062,0,0,1,12.539,48c.27-.213.66-.533,1.14-.92.08-.067.12-.093.12-.093.09-.08.19-.147.29-.227A13.261,13.261,0,0,1,12.179,57.2ZM25.615,45.017c-.64,2.093-1.989,7.426-2.809,7.146-.7-.24-1.13-4.306-.14-8.306a20.789,20.789,0,0,1,2.19-5.346c1.009-1.507,2.119-1.987,2.379-1.387C27.585,37.911,26.015,43.711,25.615,45.017Zm11.1,7.066c-.27.187-.52.307-.64.213-.09-.067.11-.32.11-.32s1.39-1.987,1.94-2.893c.32-.533.69-1.16,1.089-1.853,0,.067.01.133.01.213a6.288,6.288,0,0,1-2.512,4.64Zm8.558-2.6c-.2-.187-.17-.813.5-2.76a10.623,10.623,0,0,1,1.9-3.266,6.289,6.289,0,0,1,.19,1.44c-.01,3-1.62,4.12-2.589,4.586Z" transform="translate(0 -1.125)" fill="#ff89bb"/>
</svg>
