<svg xmlns="http://www.w3.org/2000/svg" width="64" height="64" viewBox="0 0 64 64">
  <path id="Icon_simple-adobexd" data-name="Icon simple-adobexd" d="M52.667.45H11.333A11.472,11.472,0,0,0,0,12.074V52.826A11.472,11.472,0,0,0,11.333,64.45H52.667A11.472,11.472,0,0,0,64,52.826V12.074A11.472,11.472,0,0,0,52.667.45Zm8.64,51.309A10.041,10.041,0,0,1,58.5,58.793a9.541,9.541,0,0,1-6.842,2.922H12.347a9.823,9.823,0,0,1-9.68-9.928V13.113a9.823,9.823,0,0,1,9.68-9.928h39.28a9.806,9.806,0,0,1,9.68,9.928Zm-36-21.361,7.467,14.715c.133.219.053.438-.16.438h-4.64a.523.523,0,0,1-.56-.356c-1.707-3.61-3.44-7.221-5.227-11.1h-.053c-1.6,3.665-3.36,7.521-5.067,11.132a.511.511,0,0,1-.48.3h-4.4c-.267,0-.293-.219-.16-.383l7.307-14.277L12.267,16.423c-.16-.219,0-.383.16-.383h4.587a.419.419,0,0,1,.48.3c1.68,3.61,3.387,7.33,4.987,10.968h.053c1.547-3.61,3.253-7.357,4.907-10.94.133-.219.213-.356.48-.356h4.293c.213,0,.293.164.16.383Zm8.773,4.458c0-6.373,4.133-11.35,10.693-11.35a11.532,11.532,0,0,1,1.387.055V16.313a.271.271,0,0,1,.267-.274H50.64c.213,0,.267.082.267.219V41.366a19.976,19.976,0,0,0,.133,2.68c0,.164-.053.219-.213.3A15.554,15.554,0,0,1,44,45.934C38.213,45.961,34.08,42.3,34.08,34.857Zm12.08-7a3.943,3.943,0,0,0-1.547-.274c-3.36,0-5.707,2.653-5.707,7.056,0,5.032,2.4,7.056,5.413,7.056a4.917,4.917,0,0,0,1.84-.3V27.855Z" transform="translate(0 -0.45)" fill="#ffab00"/>
</svg>
